<svg width="150" height="24" viewBox="0 0 150 24" fill="none" xmlns="http://www.w3.org/2000/svg">
<path d="M19.4424 4.47845C19.0795 4.11555 18.5996 3.91553 18.0881 3.91553H8.27422C7.29426 3.91553 6.5 4.71276 6.5 5.69287V7.47022H15.3854C15.9739 7.47022 16.4511 7.95027 16.4511 8.53891V17.4285H18.2253C19.2052 17.4285 19.9995 16.6313 19.9995 15.6512V5.83289C20.0024 5.32426 19.8052 4.84135 19.4424 4.47845Z" fill="#23376E"/>
<path d="M4.61983 20.3714C4.03128 20.3714 3.55416 19.8913 3.55416 19.3027V10.4131H1.77708C1.77422 10.4131 1.77422 10.4131 1.77136 10.4131C1.30281 10.4131 0.859969 10.596 0.525695 10.9303C0.188565 11.2675 0 11.7132 0 12.1904V22.0116C0 23.0689 0.859969 23.929 1.91707 23.929H11.7281C12.7081 23.929 13.5024 23.1317 13.5024 22.1545V20.3743H4.61983V20.3714Z" fill="#23376E"/>
<path d="M13.4952 17.4004H7.96682C7.18114 17.4004 6.54688 16.7632 6.54688 15.9774V10.4453H12.0781C12.8638 10.4453 13.498 11.0825 13.498 11.8683V17.4004H13.4952Z" fill="#23376E"/>
<path d="M54.8595 11.5638C54.4567 10.8237 53.8996 10.2608 53.1967 9.87505C52.4882 9.48929 51.6797 9.29499 50.7683 9.29499C50.1626 9.29499 49.594 9.36928 49.0683 9.52644C48.5426 9.68074 48.0598 9.9122 47.6255 10.2179C47.1912 10.5237 46.7455 10.9437 46.2884 11.4724V6.13462C46.2884 5.41168 46.1284 4.86876 45.8056 4.50015C45.4884 4.13154 45.0399 3.9458 44.4685 3.9458C43.9056 3.9458 43.4685 4.12868 43.16 4.49443C42.8514 4.85733 42.6914 5.40597 42.6914 6.13177V21.7336C42.6914 23.1909 43.2828 23.9224 44.4713 23.9224C45.0428 23.9224 45.4884 23.7366 45.8084 23.3652C46.1284 22.9937 46.2913 22.4479 46.2913 21.7393V16.9844C46.2913 15.6157 46.3884 14.6585 46.5798 14.1241C46.8313 13.4898 47.217 12.9954 47.7312 12.6268C48.2455 12.2582 48.8198 12.081 49.4626 12.081C50.4197 12.081 51.0682 12.3896 51.4111 13.0097C51.7511 13.6298 51.9254 14.5156 51.9254 15.6614V21.7393C51.9254 23.1966 52.5196 23.9281 53.7053 23.9281C54.251 23.9281 54.6881 23.7424 55.0138 23.3737C55.3424 23.0051 55.5081 22.4622 55.5081 21.7393V14.8499C55.5081 14.1555 55.4652 13.544 55.3767 13.0126C55.2824 12.4754 55.111 11.9924 54.8595 11.5638Z" fill="#23376E"/>
<path d="M58.9336 17.9704V21.7165C58.9336 22.4195 59.0964 22.9624 59.4279 23.3367C59.7564 23.7139 60.185 23.9025 60.7107 23.9025C61.2364 23.9025 61.6706 23.7168 62.0163 23.3481C62.3563 22.9795 62.5306 22.4366 62.5306 21.7137V13.3784C60.9221 14.1128 59.6021 16.0416 58.9336 17.9704Z" fill="#23376E"/>
<path d="M62.5306 13.0698V11.3239C62.5306 10.681 62.3592 10.1809 62.0163 9.82375C61.6763 9.46371 61.2421 9.28369 60.7107 9.28369C60.185 9.28369 59.7536 9.46657 59.4279 9.82375C59.0993 10.1838 58.9336 10.7181 58.9336 11.4325V15.7559C59.8393 14.5071 61.0992 13.4499 62.5306 13.0698Z" fill="#23376E"/>
<path d="M78.2023 11.6693C77.8337 10.9121 77.2766 10.332 76.5281 9.91485C75.7795 9.50337 74.9339 9.29478 73.9882 9.29478C73.0139 9.29478 72.1511 9.48909 71.3997 9.88056C70.6483 10.2692 69.9569 10.8864 69.3255 11.7179V11.2836C69.3255 10.855 69.2512 10.4921 69.0941 10.1892C68.9398 9.89199 68.7369 9.66625 68.4827 9.5148C68.2255 9.36336 67.9427 9.28906 67.6284 9.28906C67.1113 9.28906 66.7027 9.45765 66.4027 9.79769C66.1056 10.1349 65.957 10.6492 65.957 11.335V21.7305C65.957 22.4334 66.1256 22.9764 66.457 23.3507C66.7884 23.7279 67.2141 23.9165 67.737 23.9165C68.2712 23.9165 68.7112 23.7336 69.0483 23.3707C69.3855 23.0078 69.5569 22.4591 69.5569 21.7334V17.2328C69.5569 15.767 69.6455 14.7668 69.8226 14.2296C70.0712 13.561 70.4569 13.0381 70.9826 12.6523C71.5083 12.2723 72.094 12.0808 72.7339 12.0808C73.7167 12.0808 74.371 12.3951 74.7024 13.0238C75.031 13.6524 75.1967 14.5611 75.1967 15.7441V21.7419C75.1967 22.4449 75.3653 22.9878 75.6967 23.3621C76.0281 23.7393 76.4652 23.9279 77.0023 23.9279C77.528 23.9279 77.9594 23.7422 78.2852 23.3735C78.6137 23.0049 78.7794 22.462 78.7794 21.7391V15.0497C78.7794 14.2582 78.7451 13.6096 78.6737 13.1009C78.5937 12.5809 78.4394 12.1094 78.2023 11.6693Z" fill="#23376E"/>
<path d="M93.8248 20.4646L90.1392 14.6668L92.0477 12.9123C93.022 12.0351 93.5077 11.3322 93.5077 10.8035C93.5077 10.3749 93.3562 10.0149 93.062 9.73198C92.7648 9.44909 92.3906 9.30336 91.942 9.30336C91.5649 9.30336 91.242 9.40051 90.982 9.59482C90.7163 9.78913 90.3364 10.1492 89.8364 10.6749L85.7965 14.9183V6.19729C85.7965 5.4572 85.6337 4.9 85.3108 4.52281C84.988 4.14562 84.5451 3.95703 83.9909 3.95703C83.4195 3.95703 82.9823 4.16563 82.6709 4.58282C82.3652 5.00001 82.2109 5.61151 82.2109 6.40874V21.7448C82.2109 22.4677 82.3709 23.0106 82.6852 23.3793C82.9995 23.7479 83.4366 23.9336 83.9909 23.9336C84.4651 23.9336 84.8851 23.7479 85.248 23.3764C85.6108 23.0049 85.7908 22.4677 85.7908 21.7734V18.9073L87.7393 17.0614L90.9135 22.2791C91.3163 22.9021 91.6392 23.3335 91.8734 23.5736C92.1134 23.8136 92.4477 23.9279 92.8877 23.9279C93.3962 23.9279 93.8076 23.765 94.1191 23.4307C94.4276 23.1021 94.5876 22.6506 94.5876 22.0791C94.5876 21.8762 94.5305 21.6619 94.4105 21.4419C94.2905 21.2219 94.0991 20.8961 93.8248 20.4646Z" fill="#23376E"/>
<path d="M119.678 9.2207C119.373 9.2207 119.113 9.33214 118.898 9.54931C118.678 9.76077 118.57 10.0351 118.57 10.3808V11.1724H118.515C117.901 10.458 117.29 9.96365 116.684 9.68361C116.05 9.37786 115.316 9.22356 114.473 9.22356C113.49 9.22356 112.53 9.49502 111.587 10.0379C110.604 10.6009 109.807 11.4324 109.202 12.5411C108.596 13.6212 108.293 14.9871 108.293 16.6387C108.293 18.1132 108.567 19.3933 109.122 20.4734C109.676 21.5536 110.453 22.4079 111.467 23.0423C112.459 23.6309 113.556 23.9224 114.758 23.9224C116.258 23.8967 117.51 23.1709 118.513 21.7479H118.567V22.8109C118.567 23.1652 118.678 23.4395 118.895 23.6338C119.115 23.8281 119.373 23.9253 119.675 23.9253C119.998 23.9253 120.261 23.8281 120.45 23.6367C120.67 23.4166 120.778 23.1109 120.778 22.7166V10.438C120.778 10.0608 120.667 9.76362 120.45 9.55789C120.244 9.33214 119.981 9.2207 119.678 9.2207ZM117.57 20.3277C116.947 21.3564 115.916 21.8679 114.476 21.8679C113.653 21.8679 112.959 21.6164 112.396 21.1049C111.824 20.6135 111.396 19.9677 111.104 19.1704C110.816 18.3903 110.67 17.5274 110.67 16.5787C110.696 15.05 111.039 13.7984 111.696 12.8154C112.339 11.841 113.299 11.3267 114.581 11.2752H114.636C115.401 11.2752 116.073 11.4924 116.661 11.921C117.241 12.3153 117.695 12.9268 118.03 13.7498C118.353 14.5556 118.515 15.4986 118.515 16.5787C118.518 17.9989 118.204 19.2533 117.57 20.3277Z" fill="#23376E"/>
<path d="M149.301 17.5616C148.835 16.9901 148.069 16.4843 147.009 16.0471C146.752 15.9414 146.318 15.7757 145.704 15.5614C145.069 15.3385 144.544 15.1356 144.124 14.9413C143.729 14.7813 143.326 14.5327 142.924 14.1898C142.609 13.884 142.401 13.504 142.304 13.0553C142.329 12.5467 142.569 12.1152 143.015 11.7609C143.418 11.4209 144.055 11.2466 144.924 11.2466C145.369 11.2723 145.715 11.3437 145.949 11.458C146.361 11.6609 146.789 11.8924 147.241 12.1581C147.706 12.4496 148.149 12.6582 148.569 12.7925C148.858 12.7496 149.109 12.6296 149.321 12.4381C149.515 12.2438 149.609 12.0124 149.609 11.738C149.609 11.3694 149.418 10.998 149.043 10.6322C148.632 10.2379 148.029 9.90069 147.238 9.63209C146.446 9.34349 145.595 9.19775 144.684 9.19775C143.844 9.22347 143.021 9.42349 142.224 9.79211C141.547 10.1321 140.998 10.6122 140.578 11.2266C140.184 11.8523 139.984 12.5067 139.984 13.1896C139.984 13.9469 140.201 14.5841 140.629 15.1127C140.987 15.5699 141.467 15.9643 142.064 16.2986C142.715 16.5958 143.484 16.9329 144.384 17.2987C145.358 17.6845 146.052 18.0073 146.463 18.2588C147.203 18.696 147.569 19.2389 147.569 19.879C147.569 20.5648 147.272 21.062 146.675 21.3677C146.069 21.6906 145.386 21.8564 144.635 21.8564C143.878 21.8021 143.215 21.6221 142.635 21.3163C142.346 21.1391 142.104 20.9877 141.909 20.8563C141.507 20.5676 141.224 20.3791 141.069 20.2905C140.849 20.1676 140.618 20.1047 140.369 20.1047C140.081 20.1047 139.838 20.2019 139.644 20.3933C139.441 20.6134 139.344 20.862 139.344 21.1477C139.424 21.6849 139.635 22.0678 139.989 22.3078C141.238 23.3708 142.804 23.9023 144.689 23.9023C145.884 23.8766 146.852 23.668 147.601 23.2822C148.392 22.8708 148.981 22.3564 149.381 21.7421C149.766 21.162 149.975 20.4791 150.001 19.7018C149.995 18.8446 149.763 18.1331 149.301 17.5616Z" fill="#23376E"/>
<path d="M60.7261 0C58.5519 0 56.7891 1.76306 56.7891 3.94045C56.7891 6.11784 58.5519 7.8809 60.7261 7.8809C62.9003 7.8809 64.6631 6.11784 64.6631 3.94045C64.6688 1.76306 62.9003 0 60.7261 0ZM60.7261 5.32347C59.9632 5.32347 59.3433 4.7034 59.3433 3.94045C59.3433 3.17751 59.9604 2.55744 60.7261 2.55744C61.4889 2.55744 62.1089 3.17751 62.1089 3.94045C62.106 4.70625 61.4889 5.32347 60.7261 5.32347Z" fill="#23376E"/>
<path d="M40.4833 4.37147C40.1661 4.0743 39.6604 3.92285 38.9862 3.92285H26.5552C25.9124 3.92285 25.4267 4.06858 25.0867 4.35719C24.7495 4.64865 24.5781 5.04298 24.5781 5.54304C24.5781 6.02595 24.741 6.41457 25.0638 6.70889C25.3867 7.00035 25.8838 7.1518 26.5495 7.1518H30.815V17.8959V18.0216V18.3731V19.1332V21.5363C30.815 22.3393 30.9979 22.9308 31.3579 23.3308C31.7207 23.7251 32.195 23.9252 32.775 23.9252C33.3464 23.9252 33.8092 23.7309 34.1692 23.3394C34.5263 22.9508 34.7092 22.3478 34.7092 21.542V19.136V18.3759V18.0245V17.8988V7.15465H38.9747C39.6433 7.15465 40.1433 7.00892 40.4747 6.71175C40.8061 6.41457 40.9747 6.02881 40.9747 5.5459C40.9775 5.06013 40.8147 4.67151 40.4833 4.37147Z" fill="#23376E"/>
<path d="M106.17 21.9909C105.896 21.8051 105.576 21.7166 105.21 21.7166H100.351V8.61507V8.20645V7.65496V7.59209V5.35469C100.351 4.43459 99.9735 3.97168 99.2163 3.97168C98.8764 3.97168 98.5821 4.08312 98.3478 4.30029C98.1164 4.50317 98.0078 4.81749 98.0078 5.24897V7.59209V7.65496V8.20645V8.61507V22.4966C98.0078 23.0596 98.1221 23.4253 98.3478 23.6025C98.5678 23.8225 98.8221 23.9311 99.1135 23.9311H105.579C105.739 23.9311 105.942 23.8597 106.199 23.7196C106.456 23.5682 106.579 23.2539 106.579 22.771C106.576 22.4338 106.439 22.1766 106.17 21.9909Z" fill="#23376E"/>
<path d="M135.796 12.8871C135.279 11.7413 134.556 10.8412 133.636 10.1954C132.725 9.52672 131.662 9.19525 130.45 9.19525C128.879 9.19525 127.591 9.84675 126.591 11.144H126.536V6.34921V5.2948V5.12049C126.536 4.73473 126.422 4.44327 126.196 4.25182C125.939 4.04037 125.653 3.9375 125.328 3.9375C125.031 3.9375 124.762 4.04323 124.528 4.25182C124.308 4.47185 124.199 4.7776 124.199 5.17193V5.29194V6.34635V22.6797C124.199 23.0654 124.319 23.3655 124.553 23.5741C124.765 23.7855 125.022 23.8941 125.333 23.8941C125.665 23.8941 125.956 23.7884 126.202 23.5741C126.433 23.3797 126.542 23.0969 126.542 22.7225V21.9453H126.596C127.248 23.194 128.442 23.8398 130.19 23.8941C131.136 23.8941 132.01 23.7112 132.796 23.3483C133.593 22.994 134.27 22.4882 134.822 21.8367C135.376 21.1595 135.796 20.388 136.087 19.5193C136.393 18.6163 136.547 17.6419 136.547 16.5961C136.547 15.2302 136.296 13.9929 135.796 12.8871ZM133.796 19.065C133.565 19.8279 133.153 20.4823 132.556 21.028C131.985 21.5452 131.282 21.8167 130.45 21.8424C129.485 21.8424 128.685 21.5824 128.056 21.0538C127.442 20.5451 127.002 19.8936 126.736 19.0907C126.476 18.3477 126.328 17.4962 126.302 16.5532V16.499L126.276 16.4732L126.251 16.4475C126.276 15.3417 126.468 14.4044 126.816 13.6443C127.148 12.8928 127.639 12.2985 128.29 11.867C128.913 11.4555 129.619 11.2469 130.396 11.2469C131.193 11.3012 131.879 11.5555 132.45 12.0213C133.013 12.4785 133.442 13.09 133.742 13.8501C134.022 14.5759 134.176 15.4588 134.202 16.4932C134.202 17.4305 134.065 18.2849 133.796 19.065Z" fill="#23376E"/>
</svg>
