<?xml version="1.0" encoding="utf-8"?>
<!-- Generator: Adobe Illustrator 25.0.0, SVG Export Plug-In . SVG Version: 6.00 Build 0)  -->
<svg version="1.1" id="Layer_1" xmlns="http://www.w3.org/2000/svg" xmlns:xlink="http://www.w3.org/1999/xlink" x="0px" y="0px"
	 viewBox="0 0 80 20" style="enable-background:new 0 0 80 20;" xml:space="preserve">
<style type="text/css">
	.st0{fill:#23376D;}
</style>
<path class="st0" d="M19.8,9.2c-0.2-0.5-0.6-0.8-1-1.1c-0.5-0.2-0.9-0.4-1.5-0.4c-0.4,0-0.7,0.1-1.1,0.2c-0.3,0.1-0.6,0.2-0.9,0.5
	c-0.2,0.2-0.5,0.5-0.9,0.8V5.8c0-0.5-0.1-0.8-0.3-1c-0.2-0.2-0.5-0.3-0.9-0.3c-0.4,0-0.6,0.1-0.8,0.3c-0.2,0.2-0.3,0.5-0.3,1v9.7
	c0,0.9,0.4,1.4,1.1,1.4c0.4,0,0.6-0.1,0.9-0.3c0.2-0.2,0.3-0.5,0.3-1v-3c0-0.9,0.1-1.5,0.2-1.8c0.2-0.4,0.4-0.7,0.7-0.9
	c0.3-0.2,0.7-0.3,1.1-0.3c0.6,0,1,0.2,1.2,0.5c0.2,0.4,0.3,0.9,0.3,1.6v3.8c0,0.9,0.4,1.4,1.1,1.4c0.3,0,0.6-0.1,0.8-0.3
	c0.2-0.2,0.3-0.5,0.3-1v-4.3c0-0.5,0-0.8-0.1-1.2C20,9.8,20,9.5,19.8,9.2z"/>
<path class="st0" d="M22.4,13.2v2.3c0,0.5,0.1,0.8,0.3,1c0.2,0.2,0.5,0.4,0.8,0.4s0.6-0.1,0.8-0.3c0.2-0.2,0.3-0.5,0.3-1v-5.2
	C23.5,10.8,22.8,11.9,22.4,13.2z"/>
<path class="st0" d="M24.5,10.2V9.1c0-0.4-0.1-0.7-0.3-0.9c-0.2-0.2-0.5-0.3-0.8-0.3s-0.6,0.1-0.8,0.3c-0.2,0.2-0.3,0.5-0.3,1v2.7
	C22.9,11,23.7,10.4,24.5,10.2z"/>
<path class="st0" d="M34.3,9.2c-0.2-0.5-0.5-0.9-1-1.1c-0.5-0.2-1-0.4-1.6-0.4c-0.6,0-1.2,0.2-1.6,0.4c-0.5,0.2-0.9,0.6-1.3,1.2V9
	c0-0.2-0.1-0.5-0.2-0.7c-0.1-0.2-0.2-0.3-0.4-0.4c-0.2-0.1-0.3-0.2-0.5-0.2c-0.3,0-0.5,0.1-0.8,0.3c-0.2,0.2-0.3,0.5-0.3,0.9v6.5
	c0,0.5,0.1,0.8,0.3,1c0.2,0.2,0.5,0.4,0.8,0.4c0.3,0,0.6-0.1,0.8-0.3c0.2-0.2,0.3-0.5,0.3-1v-2.8c0-0.9,0.1-1.6,0.2-1.9
	c0.2-0.4,0.4-0.8,0.7-1c0.3-0.2,0.7-0.4,1.1-0.4c0.6,0,1,0.2,1.2,0.6c0.2,0.4,0.3,0.9,0.3,1.7v3.7c0,0.5,0.1,0.8,0.3,1
	c0.2,0.2,0.5,0.4,0.8,0.4c0.3,0,0.6-0.1,0.8-0.3c0.2-0.2,0.3-0.5,0.3-1v-4.3c0-0.5,0-0.9-0.1-1.2C34.6,9.8,34.5,9.5,34.3,9.2z"/>
<path class="st0" d="M44.1,14.7l-2.3-3.6l1.2-1.1c0.6-0.5,0.9-1,0.9-1.3c0-0.2-0.1-0.5-0.3-0.7c-0.2-0.2-0.4-0.2-0.7-0.2
	c-0.2,0-0.5,0.1-0.6,0.2c-0.2,0.2-0.4,0.3-0.7,0.7l-2.5,2.6V5.9c0-0.5-0.1-0.8-0.3-1s-0.5-0.4-0.9-0.4c-0.4,0-0.6,0.2-0.9,0.4
	c-0.2,0.2-0.3,0.6-0.3,1.2v9.6c0,0.5,0.1,0.8,0.3,1c0.2,0.2,0.5,0.3,0.8,0.3c0.3,0,0.5-0.1,0.8-0.3c0.2-0.2,0.3-0.5,0.3-1v-1.8
	l1.2-1.2l1.9,3.3c0.2,0.4,0.5,0.6,0.6,0.8c0.2,0.2,0.4,0.2,0.6,0.2c0.3,0,0.5-0.1,0.8-0.3c0.2-0.2,0.3-0.5,0.3-0.9
	c0-0.2,0-0.2-0.1-0.4C44.3,15.2,44.2,15,44.1,14.7z"/>
<path class="st0" d="M60.1,7.8c-0.2,0-0.4,0.1-0.5,0.2c-0.2,0.2-0.2,0.3-0.2,0.5V9c-0.4-0.5-0.8-0.8-1.2-0.9
	c-0.4-0.2-0.9-0.3-1.4-0.3c-0.6,0-1.2,0.2-1.8,0.5c-0.6,0.4-1.1,0.9-1.5,1.6c-0.4,0.7-0.5,1.6-0.5,2.6c0,0.9,0.2,1.7,0.5,2.4
	c0.3,0.7,0.9,1.2,1.5,1.6c0.6,0.4,1.3,0.5,2,0.5c0.9,0,1.7-0.5,2.3-1.3v0.6c0,0.2,0.1,0.4,0.2,0.5c0.2,0.2,0.3,0.2,0.5,0.2
	c0.2,0,0.4-0.1,0.5-0.2c0.2-0.2,0.2-0.3,0.2-0.5V8.5c0-0.2-0.1-0.4-0.2-0.5C60.5,7.8,60.3,7.8,60.1,7.8z M58.7,14.7
	c-0.4,0.6-1,0.9-1.9,0.9c-0.5,0-0.9-0.2-1.3-0.5s-0.6-0.7-0.8-1.2c-0.2-0.5-0.2-1-0.2-1.6c0-0.9,0.2-1.7,0.6-2.3
	c0.4-0.6,1-0.9,1.8-0.9c0.5,0,0.9,0.2,1.2,0.4c0.4,0.2,0.6,0.6,0.9,1.2c0.2,0.5,0.3,1.1,0.3,1.8C59.4,13.2,59.1,14,58.7,14.7z"/>
<path class="st0" d="M78.5,12.9c-0.3-0.4-0.8-0.7-1.4-0.9c-0.2-0.1-0.5-0.2-0.8-0.3c-0.4-0.2-0.7-0.2-1-0.4
	c-0.2-0.1-0.5-0.2-0.8-0.5c-0.2-0.2-0.3-0.4-0.4-0.7c0-0.3,0.2-0.6,0.5-0.8C74.8,9.1,75.2,9,75.8,9c0.3,0,0.5,0.1,0.6,0.2
	c0.2,0.2,0.5,0.2,0.8,0.5c0.3,0.2,0.5,0.3,0.9,0.4c0.2,0,0.3-0.1,0.5-0.2c0.2-0.2,0.2-0.2,0.2-0.5c0-0.2-0.2-0.5-0.4-0.7
	S77.6,8.1,77.2,8c-0.5-0.2-1-0.2-1.6-0.2c-0.5,0-1,0.2-1.6,0.4c-0.4,0.2-0.8,0.5-1,0.9c-0.2,0.4-0.4,0.8-0.4,1.2
	c0,0.5,0.2,0.9,0.4,1.2c0.2,0.3,0.5,0.5,0.9,0.7c0.4,0.2,0.9,0.4,1.5,0.6c0.6,0.2,1,0.5,1.3,0.6c0.5,0.2,0.7,0.6,0.7,1
	s-0.2,0.7-0.5,0.9c-0.4,0.2-0.8,0.3-1.2,0.3c-0.5,0-0.9-0.2-1.2-0.3c-0.2-0.1-0.3-0.2-0.5-0.3c-0.2-0.2-0.4-0.3-0.5-0.4
	c-0.2-0.1-0.3-0.1-0.5-0.1c-0.2,0-0.3,0.1-0.5,0.2c-0.2,0.2-0.2,0.3-0.2,0.5c0.1,0.3,0.2,0.5,0.4,0.7c0.8,0.6,1.8,1,3,1
	c0.8,0,1.3-0.2,1.8-0.4c0.5-0.2,0.9-0.5,1.1-0.9c0.2-0.4,0.4-0.8,0.4-1.2C79,13.7,78.8,13.3,78.5,12.9z"/>
<path class="st0" d="M23.5,2c-1.3,0-2.4,1.1-2.4,2.5c0,1.3,1.1,2.5,2.4,2.5c1.3,0,2.4-1.1,2.4-2.5C25.9,3.1,24.8,2,23.5,2z
	 M23.5,5.3c-0.5,0-0.9-0.4-0.9-0.9c0-0.5,0.4-0.9,0.9-0.9c0.5,0,0.9,0.4,0.9,0.9C24.3,5,23.9,5.3,23.5,5.3z"/>
<path class="st0" d="M10.9,4.7c-0.2-0.2-0.5-0.3-0.9-0.3H2.2c-0.4,0-0.7,0.1-0.9,0.2S1,5,1,5.3C1,5.7,1.1,5.9,1.3,6s0.5,0.3,0.9,0.3
	h2.6V13v0.1v0.2v0.5v1.5c0,0.5,0.1,0.9,0.3,1.1c0.2,0.2,0.5,0.4,0.9,0.4c0.4,0,0.6-0.2,0.9-0.4c0.2-0.2,0.3-0.6,0.3-1.1v-1.5v-0.5
	v-0.2V13V6.4h2.6c0.4,0,0.7-0.1,0.9-0.3C11,6,11.1,5.7,11.1,5.4C11.2,5.1,11.1,4.9,10.9,4.7z"/>
<path class="st0" d="M51.7,15.7c-0.2-0.1-0.4-0.2-0.6-0.2h-3V7.4V7.1V6.7V5.3c0-0.5-0.2-0.9-0.7-0.9c-0.2,0-0.4,0.1-0.5,0.2
	S46.5,5,46.5,5.3v1.5v0.1v0.3v0.2V16c0,0.4,0.1,0.5,0.2,0.7c0.2,0.2,0.3,0.2,0.5,0.2h4c0.1,0,0.2-0.1,0.4-0.2
	c0.2-0.1,0.2-0.3,0.2-0.6C52,15.9,51.8,15.8,51.7,15.7z"/>
<path class="st0" d="M70.1,10c-0.3-0.7-0.8-1.2-1.3-1.7c-0.5-0.4-1.2-0.6-1.9-0.6c-1,0-1.8,0.4-2.4,1.2V6V5.3V5.2
	c0-0.2-0.1-0.4-0.2-0.5c-0.2-0.2-0.3-0.2-0.5-0.2c-0.2,0-0.4,0.1-0.5,0.2C63,4.8,62.9,5,62.9,5.2v0.1v0.6v10.2
	c0,0.2,0.1,0.4,0.2,0.5c0.2,0.2,0.3,0.2,0.5,0.2c0.2,0,0.4-0.1,0.5-0.2c0.2-0.2,0.2-0.3,0.2-0.5v-0.5c0.4,0.8,1.2,1.2,2.3,1.2
	c0.6,0,1.2-0.1,1.6-0.3c0.5-0.2,0.9-0.5,1.2-0.9s0.6-0.9,0.8-1.5c0.2-0.5,0.3-1.2,0.3-1.8C70.6,11.5,70.4,10.7,70.1,10z M68.9,13.8
	c-0.2,0.5-0.4,0.9-0.8,1.2c-0.4,0.3-0.8,0.5-1.3,0.5c-0.6,0-1.1-0.2-1.5-0.5c-0.4-0.3-0.6-0.7-0.9-1.2c-0.2-0.5-0.2-1-0.2-1.6
	c0-0.7,0.2-1.2,0.4-1.7c0.2-0.5,0.5-0.9,0.9-1.1c0.4-0.2,0.9-0.4,1.3-0.4s0.9,0.2,1.2,0.5c0.4,0.3,0.6,0.7,0.8,1.2
	c0.2,0.5,0.2,1,0.3,1.6C69.1,12.8,69,13.3,68.9,13.8z"/>
</svg>
