<svg width="150" height="150" viewBox="0 0 150 150" fill="none" xmlns="http://www.w3.org/2000/svg">
<path d="M23.1459 68.1802C22.8073 67.8415 22.3593 67.6548 21.882 67.6548H12.7223C11.8077 67.6548 11.0664 68.3989 11.0664 69.3136V70.9725H19.3594C19.9087 70.9725 20.354 71.4205 20.354 71.9699V80.2668H22.01C22.9246 80.2668 23.6659 79.5227 23.6659 78.608V69.4443C23.6685 68.9696 23.4846 68.5189 23.1459 68.1802Z" fill="#23376E"/>
<path d="M9.31182 83.0136C8.76251 83.0136 8.3172 82.5656 8.3172 82.0162V73.7192H6.6586C6.65593 73.7192 6.65593 73.7192 6.65327 73.7192C6.21595 73.7192 5.80263 73.8899 5.49065 74.202C5.17599 74.5167 5 74.9327 5 75.3781V84.5445C5 85.5312 5.80263 86.334 6.78926 86.334H15.9462C16.8608 86.334 17.6021 85.5899 17.6021 84.6778V83.0163H9.31182V83.0136Z" fill="#23376E"/>
<path d="M17.5944 80.2404H12.4347C11.7014 80.2404 11.1094 79.6457 11.1094 78.9123V73.749H16.2718C17.0051 73.749 17.5971 74.3438 17.5971 75.0772V80.2404H17.5944Z" fill="#23376E"/>
</svg>
